<svg xmlns="http://www.w3.org/2000/svg" xmlns:xlink="http://www.w3.org/1999/xlink" width="520" height="520" fill="none"><linearGradient id="a"><stop offset="0" stop-color="#52ce63"/><stop offset="1" stop-color="#51a256"/></linearGradient><linearGradient xlink:href="#a" id="b" x1="125.89" x2="144.004" y1="80.73" y2="160.139" gradientUnits="userSpaceOnUse"/><linearGradient xlink:href="#a" id="c" x1="416.713" x2="335.315" y1="122.67" y2="136.966" gradientUnits="userSpaceOnUse"/><linearGradient id="d" x1="277.206" x2="264.108" y1="10.951" y2="139.129" gradientUnits="userSpaceOnUse"><stop offset="0" stop-color="#8ae99c"/><stop offset="1" stop-color="#52ce63"/></linearGradient><linearGradient id="e" x1="252.231" x2="227.244" y1="233.711" y2="508.113" gradientUnits="userSpaceOnUse"><stop offset="0" stop-color="#ffe56c"/><stop offset="1" stop-color="#ffc63a"/></linearGradient><g fill-rule="evenodd" clip-rule="evenodd"><path fill="url(#b)" d="M232.048 242.049c33.691-31.686 24.958-69.589-3.141-115.073s-87.156-60.415-98.615-49.638-16.365 85.862 11.734 131.346 56.33 65.05 90.022 33.365"/><path fill="url(#c)" d="M260.078 248.586c22.571 36.655 54.797 22.215 95.345-16.059s59.169-110.074 51.492-122.541-69.149-10.256-109.696 28.017c-40.548 38.274-59.711 73.928-37.141 110.583"/><path fill="url(#d)" d="M246.313 228.018c37.672 3.85 53.62-33.52 62.293-93.447S290.535 12.313 277.722 11.003c-12.813-1.309-57.589 53.713-66.263 113.64-8.673 59.927-2.818 99.526 34.854 103.375"/><path fill="url(#e)" d="M248.058 508.527c83.119 0 150.527-24.145 150.527-133.645s-67.408-199.355-150.527-199.355S97.585 265.382 97.585 374.882s67.354 133.645 150.473 133.645"/><path fill="#ecb732" d="M366.24 390.523a5.5 5.5 0 0 0-7.777.154l-74 77a5.5 5.5 0 0 0 7.931 7.623l74-77a5.5 5.5 0 0 0-.154-7.777"/><path fill="#ecb732" d="M294.661 399.481a5.5 5.5 0 0 0-.24 7.775l47 50a5.5 5.5 0 0 0 8.015-7.534l-47-50a5.5 5.5 0 0 0-7.775-.241"/><path fill="#ffc73b" d="M281.318 214.599a5.503 5.503 0 0 1 0 7.779l-49 49a5.5 5.5 0 0 1-7.779-7.779l49-49a5.503 5.503 0 0 1 7.779 0"/><path fill="#ffc73b" d="M271.318 271.378a5.503 5.503 0 0 0 0-7.779l-49-49a5.5 5.5 0 0 0-7.779 7.779l49 49a5.503 5.503 0 0 0 7.779 0"/></g><path fill="#eaadcc" d="M166.768 348.96c11.786 1.447 21.886-1.824 22.559-7.306.673-5.481-8.336-11.098-20.121-12.545-11.786-1.447-21.886 1.823-22.559 7.305s8.336 11.099 20.121 12.546M318.987 355.034c11.874 0 21.5-4.477 21.5-10s-9.626-10-21.5-10-21.5 4.477-21.5 10 9.626 10 21.5 10"/><path fill="#fff" d="M205.452 310.645c-.511 14.627-12.782 26.07-27.409 25.559s-26.07-12.782-25.559-27.409 12.782-26.07 27.409-25.559 26.07 12.782 25.559 27.409"/><path fill="#000" d="M196.475 309.831c-.328 9.383-8.2 16.724-17.583 16.396s-16.724-8.199-16.396-17.583 8.199-16.724 17.583-16.396 16.724 8.2 16.396 17.583"/><path fill="#fff" d="M180.589 306.275a7 7 0 1 1-13.991-.49 7 7 0 0 1 13.991.49M335.373 315.182c-.511 14.626-12.782 26.07-27.409 25.559s-26.07-12.782-25.559-27.409 12.782-26.07 27.409-25.559 26.069 12.782 25.559 27.409"/><path fill="#000" d="M326.396 314.368c-.328 9.383-8.2 16.724-17.583 16.396s-16.724-8.199-16.397-17.583 8.2-16.724 17.583-16.396 16.724 8.2 16.397 17.583"/><path fill="#fff" d="M310.51 310.811a7 7 0 1 1-13.991-.487 7 7 0 0 1 13.991.487"/><path fill="#ecb732" fill-rule="evenodd" d="M125.617 390.523a5.5 5.5 0 0 1 7.777.154l74 77a5.5 5.5 0 0 1-7.931 7.623l-74-77a5.5 5.5 0 0 1 .154-7.777" clip-rule="evenodd"/><path fill="#ecb732" fill-rule="evenodd" d="M197.195 399.481a5.5 5.5 0 0 1 .241 7.775l-47 50a5.501 5.501 0 0 1-8.015-7.534l47-50a5.5 5.5 0 0 1 7.774-.241" clip-rule="evenodd"/><path fill="#000" fill-rule="evenodd" d="M218.752 327.146a3 3 0 0 0-.811 4.165c4.663 6.92 11.808 10.81 20.997 11.86 9.258 1.057 17.542-1.307 24.655-7.088a3 3 0 1 0-3.784-4.656c-5.829 4.736-12.493 6.662-20.19 5.782-7.765-.887-13.187-4.035-16.703-9.251a3 3 0 0 0-4.164-.812" clip-rule="evenodd"/><path fill="#000" fill-rule="evenodd" d="M218.752 327.146a3 3 0 0 0-.811 4.165c4.663 6.92 11.808 10.81 20.997 11.86 9.258 1.057 17.542-1.307 24.655-7.088a3 3 0 1 0-3.784-4.656c-5.829 4.736-12.493 6.662-20.19 5.782-7.765-.887-13.187-4.035-16.703-9.251a3 3 0 0 0-4.164-.812" clip-rule="evenodd"/></svg>