<svg xmlns="http://www.w3.org/2000/svg" xmlns:xlink="http://www.w3.org/1999/xlink" version="1.1" preserveAspectRatio="none" viewBox="0 0 800 600" width="500" height="400">
      <path transform="translate(0, 0)" fill="#ffffff" fill-rule="evenodd" d="M223.8930958701215,263.3392263186432L227.54946533642362,263.8988661330332L231.07958748984402,264.80878256681046L234.4648001488203,266.0503075007156L237.68644113179013,267.604772815489L240.7258482571912,269.4535103918714L243.5643593434611,271.57785211060326L246.1833122090375,273.959129852425L248.56404467235802,276.57867549807725L250.68789455186035,279.41782092830044L252.5361996659821,282.4578980238351L254.09029783316095,285.68023866542194L255.3315268718345,289.06617473380123L256.24122460044043,292.5970381097137L256.8007288374164,296.2541606738998L256.9913774012,300.0188743071L256.8015640734561,303.7740114247171L256.24448637530645,307.4222403084698L255.3386877343743,310.945005655341L254.10271157828282,314.32375216231407L252.5551013346552,317.53992452637215L250.71440043111463,320.57496744449827L248.59915229528434,323.4103256136757L246.2279003547875,326.0274437308875L243.61918803724728,328.4077664931169L240.79155877028688,330.5327385973471L237.76355598152955,332.3838047405611L234.55372309859843,333.9424096197422L231.1806035491167,335.18999793187345L227.66274076070763,336.1080143739381L224.01867816099434,336.6779036429192L220.2669591776,336.8811104358L220.1291412725,336.8811104358L219.0590257746,336.8892173713L215.70056145085508,336.80763341499414L212.0180888790906,336.5321955281594L208.05203190024963,336.0168746839199L203.84281435527498,335.2156418554L199.43086008510977,334.0824680157238L194.85659293069688,332.5713241380156L190.1604367329793,330.63618119539956L185.3828153329,328.231010161L180.95024537888028,325.5594186222179L176.93963192201096,322.72228409203746L173.33667698800178,319.7794110542945L170.12708260256252,316.79060399282497L167.29655079140298,313.8156673914648L164.83078358023283,310.91440573405L162.71548299476194,308.14662350441637L160.93635106070002,305.57212518639994L160.40384256298188,304.55324805485014L160.09411645540473,303.481549171089L160.00080752682211,302.38856958139894L160.11755056608752,301.30585033206245L160.43798036205453,300.2649324693619L160.9557317035766,299.29735703957965L161.66443937950726,298.4346650889982L162.55773817870002,297.7083976638999L163.57661531024985,297.1772271272329L164.64831419401096,296.8685064696765L165.741293783701,296.7759179816599L166.82401303303752,296.8931439536124L167.8649308957381,297.2138666759634L168.83250632552034,297.7317684391421L169.6951982761018,298.4405315335779L170.42146570120002,299.3338382496999L171.91199389504007,301.48929350054186L173.68292389038282,303.8060166009608L175.74636858903727,306.2339883917212L178.1144408928125,308.72318971358743L180.79925370351737,311.2236014073239L183.81291992296093,313.6852043136952L187.16755245295215,316.0579792734658L190.87526419530002,318.2919071273999L195.05817378423518,320.3873916388786L199.16574587407501,322.05479194993586L203.15874416327114,323.3379995165408L206.99793235027502,324.28090579466243L210.6440741335383,324.92740224027006L214.05793321151253,325.32138030933277L217.20027328264925,325.5067314578197L220.0318580454,325.5273471416999L220.14535514370002,325.5273471416999L222.74899666803208,325.39397756130774L225.27825666247816,325.0055185815812L227.72022063613832,324.37488469342026L230.06197409811253,323.51499038772494L232.2906025575008,322.43875015539527L234.39319152340315,321.15907848733116L236.35682650491958,319.6888898744328L238.16859301115002,318.04109880759995L239.81557655119454,316.2286197777327L241.28486263415311,314.26436727573116L242.5635367691258,312.16125579249524L243.63868446521252,309.9321998189249L244.4973912315133,307.59011384592026L245.12674257712814,305.1479123643812L245.51382401115706,302.6185098652078L245.64572104270002,300.01482083929994L245.513731976854,297.40966124377525L245.1263863153098,294.8788950535304L244.49661636205838,292.4354486348594L243.63735442109063,290.0922483540562L242.56153279639753,287.86222057741475L241.28208379196994,285.75829167122885L239.8119397117988,283.79338800179255L238.16403285987502,281.9804359353999L236.35129554018954,280.33236183834475L234.38666005673323,278.86209207692104L232.28305871349704,277.5825530174227L230.0534238144719,276.5066710261437L227.71068766364868,275.64737246937807L225.26778256501836,275.0175837134195L222.73764082257185,274.6302311245622L220.1331947403,274.49824106909995L203.858521543,274.49824106909995L203.858521543,316.4556862162L198.0742229993625,314.57133037495L192.5088117167,312.0819944653L192.5088117167,263.1485312429L220.1291412725,263.1485312429ZM631.5822365376,335.2435030856L620.7685222519,335.2435030856L620.7685222519,327.5223602285L619.0252543947472,329.6612664785041L617.0772365375968,331.45632451422034L614.9640043947355,332.925614692792L612.72509368045,334.0872173713625L610.400040109027,334.9592129070752L608.0283793947531,335.5596816570734L605.6496472519152,335.90670397850056L603.3033793948,336.0183602285L600.995006626938,335.9005583311781L598.7147186805055,335.55101647849824L596.4791896626452,334.9755304293892L594.3050936805,334.1798959427797L592.2091048412127,333.1699087775985L590.2078972519257,331.9513646927744L588.3181450197822,330.5300594472362L586.5565222519249,328.91178879991253L584.9397030554966,327.1023485097322L583.4843615376399,325.10753433562405L582.2071718054976,322.93314203651676L581.1248079662125,320.5849673713391L580.2539441269273,318.0688060990198L579.6112543947851,315.3904539784877L579.2134128769284,312.5557067686715L579.0770936805,309.5703602285L579.2209128769284,306.45732116600004L579.6397543947852,303.5277977285L580.3146941269274,300.78418054099996L581.2268079662125,298.2288602285L582.3571718054975,295.864227416L583.6868615376399,293.6926727285L585.1969530554966,291.716586791L586.868522251925,289.93836022849996L588.6826450197823,288.3603836659999L590.6203972519257,286.9850477284999L592.6628548412125,285.81474304099993L594.7910936804999,284.85186022849996L596.9861896626451,284.098789916L599.2292186805055,283.55792272849993L601.5012566269379,283.23164929099994L603.7833793948,283.1223602285L606.1602097519152,283.2422664784994L608.5008793947532,283.6110387999265L610.787227609027,284.2422575499247L613.00109368045,285.1495030856375L615.1243168947356,286.346355764208L617.138736537597,287.8463959427797L619.0261918947473,289.66320397849586L620.7685222519,291.8103602285L620.7685222519,263.6275030856L631.5822365376,263.6275030856ZM519.293328319126,283.36143612135584L523.0914622477017,284.11182451420933L526.5755604619858,285.4232664784894L528.169059345912,286.3049266347359L529.6471051048376,287.34550308562496L530.9973830066198,288.5512134650851L532.2075783191159,289.9282754070449L533.2653763101835,291.48290654543297L534.1584622476797,293.22132451417804L534.8745213994621,295.14974694720866L535.401239033388,297.2743914784535L535.7263004173149,299.601475741841L535.8373908191,302.1372173713L535.8373908191,335.2435030856L525.9905336763,335.2435030856L525.9905336763,328.3932173713L524.5751095691488,329.91195397845354L522.9407122477156,331.33482451417814L521.0940113548559,332.628962907045L519.0416765334251,333.761503085625L516.7903774262786,334.6995789784895L514.3467836762719,335.4103245142094L511.71756492626054,335.86087362135584L508.9093908191,336.0183602285L505.1185024262494,335.7209048713564L501.6132836762578,334.85114594278275L498.461475640553,333.4429941570646L495.7308193905625,331.5303602284875L493.4890559977143,329.1471548713369L491.80392653343597,326.32728879989844L490.74317206915526,323.1046727284577L490.46810454683526,321.3529305409506L490.3745336763,319.5132173713L490.47399405576425,317.5757246257665L490.76746671201425,315.7807754070178L491.2475889218356,314.1259489561254L491.9069979620141,312.6088245141609L492.73833110933526,311.2269813221958L493.7342256405849,309.9779986213017L496.1902479620125,307.86893165701247L499.21616314058224,306.26225754986535L502.75306939057975,305.1386102284328L506.7420649262905,304.47862362128694L511.124247962,304.262931657L525.1196765334,304.262931657L525.1196765334,302.3292173713L524.8876318905442,299.67279772845757L524.2224622476906,297.47328879989834L523.1706140334105,295.69902987133685L521.778533676275,294.31836022848745L520.092667604855,293.2996191570646L518.1594622477219,292.6111459427828L516.0253640334465,292.22127987135644L513.7368193906,292.0983602285L511.6954399263084,292.1836325499262L509.7563551048735,292.4372530856343L506.0851051048625,293.436360228475L502.5231408191453,295.0693245141781L498.8705336763,297.3097887999L494.0431051049,290.5555030856L496.67461403345783,288.62764147845485L499.28989081916257,287.0306102284578L501.90034617629846,285.7416682641787L504.51739081915,284.7380745141875L507.15243546200156,283.99708790705404L509.8168908191375,283.4959673713484L512.5221676048423,283.21197183564044L515.2796765334,283.1223602285ZM461.26209961165944,283.25816714814266L464.03209403130404,283.65692272849935L466.6816732723767,284.305629201713L469.2003708170203,285.19128879992655L471.57772014737776,286.30090375528283L473.80325474559197,287.6214762999248L475.8665080938059,289.1400086659953L477.7570136741625,290.8435030856375L479.46430496880464,292.71896179099406L480.9779154598752,294.753387014208L482.2873786295172,296.9337809874222L483.38222795987343,299.2471459427797L484.2519969330869,301.6804841124233L484.8862190313005,304.22079772849594L485.27442773665723,306.8550890231405L485.4061565313,309.5703602285L485.27442773665723,312.28450141153104L484.8862190313005,314.9179539784918L484.2519969330869,317.4576900275965L483.38222795987343,319.8906816570594L482.2873786295172,322.2039009650945L480.9779154598752,324.384320049916L479.46430496880464,326.4189110097381L477.7570136741625,328.294645942775L475.8665080938059,329.9984969472408L473.80325474559197,331.51743612134965L471.57772014737776,332.83843556331567L469.2003708170203,333.9484673713531L466.6816732723767,334.8345036436761L464.03209403130404,335.4835164784988L461.26209961165944,335.8824779740354L458.3821565313,336.0183602285L455.5010064196994,335.8824779740354L452.7299556384533,335.4835164784988L450.07946066077625,334.8345036436761L447.5599779598828,333.9484673713531L445.1819640089876,332.83843556331567L442.9558752813053,331.51743612134965L440.89216825005036,329.9984969472408L439.0012993884375,328.294645942775L437.29372516968124,326.4189110097381L435.77990206699627,324.384320049916L434.47028655359713,322.2039009650945L433.37533510269844,319.8906816570594L432.50550418751476,317.4576900275965L431.8712502812607,314.9179539784918L431.48302985715094,312.28450141153104L431.3512993884,309.5703602285L431.48302985715094,306.8550890231405L431.8712502812607,304.22079772849594L432.50550418751476,301.6804841124233L433.37533510269844,299.2471459427797L434.47028655359713,296.9337809874222L435.77990206699627,294.753387014208L437.29372516968124,292.71896179099406L439.0012993884375,290.8435030856375L440.89216825005036,289.1400086659953L442.9558752813053,287.6214762999248L445.1819640089876,286.30090375528283L447.5599779598828,285.19128879992655L450.07946066077625,284.305629201713L452.7299556384533,283.65692272849935L455.5010064196994,283.25816714814266L458.3821565313,283.1223602285ZM384.1119279577,292.8732173713L385.89419581485294,290.45792272845756L387.8272136720047,288.41628879989844L389.88944581486976,286.73240487133694L392.0593565291625,285.39036022848745L394.31541010059755,284.3742441570646L396.6360708148891,283.6681459427828L398.99980295775174,283.25615487135644L401.3850708149,283.1223602285L403.66395920776205,283.23164929099994L405.92685652919454,283.55792272849993L408.1556824220548,284.098789916L410.3323565292,284.85186022849996L412.4387984934874,285.81474304099993L414.4569279577742,286.9850477284999L416.36866456491765,288.3603836659999L418.15592795777496,289.93836022849996L419.8006377792034,291.716586791L421.2847136720601,293.6926727285L422.5900752792024,295.864227416L423.6986422434875,298.2288602285L424.5923342077726,300.78418054099996L425.25307081491485,303.5277977285L425.66277170777164,306.45732116600004L425.8033565292,309.5703602285L425.6670373327716,312.50711580885957L425.26919581491484,315.3057977285041L424.62650608277255,317.9593144695767L423.7556422434875,320.4605745142203L422.67327840420245,322.80248634457774L421.39608867206016,324.977958442792L419.9407471542034,326.9798992910059L418.32392795777497,328.8012173713625L416.56230518991765,330.43482116600467L414.6725529577742,331.8736191570752L412.6713453684874,333.11051982671717L410.5753565292,334.13843165707345L408.4012605470548,334.950263130287L406.16573152919455,335.5389227285006L403.88544358276204,335.8973189338573L401.5770708149,336.0183602285L399.26455295776583,335.8827977284989L396.9639279577703,335.47771737135315L394.687731529199,334.8055298713496L392.44849938633746,333.868645942775L390.2587672434713,332.669476299916L388.1310708148859,331.21043165705936L386.077945814867,329.4939227284918L384.1119279577,327.5223602285L384.1119279577,335.2435030856L373.298213672,335.2435030856L373.298213672,263.6275030856L384.1119279577,263.6275030856ZM290.8769972099019,283.22044281778574L293.33276339293275,283.5132709427857L295.71831752239257,283.99871513921437L298.0189642857813,284.6746459427859L300.22000837059886,285.5389338892146L302.3067544643453,286.58944951421495L304.2645072545207,287.8240633535012L306.078571428625,289.24064594278747L307.73425167415826,290.83706781778824L309.21685267862034,292.6111995142178L310.5116791295113,294.56091156779036L311.60403571433125,296.6840745142203L312.4792271205801,298.978558889222L313.12255803575783,301.44223522850956L313.5193331473645,304.07297406779753L313.6548571429,306.8686459428L313.6548571429,314.3017887999L273.4034285715,314.3017887999L273.93854017862634,317.08094058560135L275.05246428576095,319.54428879987967L276.6637991071869,321.6749584427338L278.6911428571875,323.4560745141625L281.05309375004595,324.8707620141646L283.6682500000453,325.902145942739L286.4552098214689,326.53335129988454L289.3325714286,326.7475030856L293.3475357143515,326.4221102284656L295.3385044643607,325.99499862133086L297.2808571429375,325.373503085625L299.1463883929408,324.54404326420354L300.90689285722965,323.49303879992186L302.53416517866305,322.20690933563554L304.0000000001,320.6720745142L310.1782857143,327.4263602285L307.6346205357545,329.76232897850406L305.00939285719846,331.6588245142203L302.3206830357775,333.15530219279196L299.5865714286375,334.29121737136245L296.82513839292403,335.10602540707515L294.05446428578284,335.63918165707344L291.2926294643595,335.93014147850056L288.5577142858,336.0183602285L285.99142354918035,335.9037458311781L283.47910267863415,335.56301647849824L281.036150111661,335.00084292938925L278.67796428576094,334.22189594277967L276.41994363843367,333.23084627759846L274.27748660717907,332.03236469277437L272.2659916294971,330.6311219472361L270.4008571428875,329.03178879991253L268.69748158485015,327.2390360097323L267.17126339288495,325.2575343356241L265.8376010044917,323.09195453651677L264.7118928571703,320.7469673713391L263.8095373884206,318.22724359901986L263.14593303574236,315.53745397848775L262.73647823663555,312.6822692686716L262.5965714286,309.6663602285L262.7449441964575,306.5206024160001L263.17733928574415,303.56454772850003L263.8746718750314,300.800024291L264.81785714289066,298.2288602285L265.9878102678932,295.852883666L267.36544642861054,293.67392272850003L268.931680803614,291.69380554099996L270.667428571475,289.91436022849996L272.5536049107649,288.33741491599994L274.5711250000551,286.96479772849995L276.70090401791697,285.79833679099994L278.92385714292186,284.83986022849996L281.2208995536412,284.09119616600003L283.57294642864645,283.5541727285L285.9609129465089,283.230618041L288.3657142858,283.1223602285ZM574.9753222498,294.0320745142L572.8633774953386,294.07827317490677L570.9050856426632,294.321306657043L569.0980460221308,294.75197406775146L567.4398579640986,295.361074514175L565.9281207989236,296.1394071034564L564.5604338569628,297.0777709427383L563.3343964685735,298.16696513916355L562.2476079641126,299.397788799875L560.4821749284047,302.2475209427273L559.2449293926954,305.5533602284375L558.5166659998417,309.2416995141476L558.2781793927,313.238931657L558.2781793927,335.2435030856L547.464465107,335.2435030856L547.464465107,283.8972173713L558.2781793927,283.8972173713L558.2781793927,294.2240745142L559.6788847498387,291.95351647848224L561.331107964122,289.86946737133906L563.2054383212629,288.0047932641982L565.272465106975,286.39236022848746L567.5027776069714,285.06503433563455L569.8669651069656,284.0556816570672L572.3356168926707,283.39716826421306L574.8793222498,283.1223602285ZM341.3063850985,322.694931657L356.9406708128,283.8972173713L368.1383850985,283.8972173713L347.4846708128,335.2435030856L335.1280993842,335.2435030856L314.4743850985,283.8972173713L325.6652422413,283.8972173713ZM512.8659622477,311.7920745142L510.5627792119822,311.8736102284834L508.39435510483906,312.13707451419225L506.4138059976983,312.61075308561425L504.67424796198753,313.3229316570375L503.22879706913454,314.30189594274975L502.1305693905672,315.57593165703906L501.4326809977131,317.17332451419315L501.188247962,319.1223602285L501.3982613548584,320.9503780856328L502.0004979620047,322.52736022848126L502.95325242629553,323.8555566570453L504.21481939058754,324.937217371325L505.74349349773735,325.7745923713203L507.4975693906016,326.3699316570312L509.4353417120369,326.7254852284578L511.5151051049,326.8435030856L514.257239033456,326.6563646927418L516.8021765334422,326.1062530855969L519.0980068905728,325.2101236213098L521.0928193905625,323.98493165702496L522.7347033191255,322.4476325498871L523.9717479619766,320.6151816570406L524.7520426048299,318.50453433563007L525.0236765334,316.1326459428L525.0236765334,311.7920745142ZM602.6066695733546,292.9089227284983L599.6184151090624,293.8651459427797L596.912857073339,295.3938334427744L594.5545222518999,297.4417887999125L592.6079374304609,299.95581558562407L591.1376293947375,302.882717371339L590.2081249304454,306.16929772848766L589.8839508233,309.7623602285L590.2317499304454,313.41719058562455L591.2186293947375,316.6874316570406L592.7598124304609,319.54142272846127L594.7705222519,321.9475030855999L597.1659820733391,323.87401201416986L599.8614151090626,325.28928879988433L602.7720445733546,326.16167272845655L605.8130936805,326.4595030856L608.7913168947741,326.1502352284566L611.6003079661984,325.25178879988437L614.1698347519142,323.8081995141699L616.4296651090625,321.86350308560003L618.3095668947842,319.46173522846135L619.7393079662203,316.6469316570406L620.6486561805119,313.4631280856246L620.9673793948,309.9543602285L620.6486561805119,306.24279772848763L619.7393079662203,302.882717371339L618.3095668947842,299.91831558562404L616.4296651090625,297.3937887999125L614.1698347519142,295.35333344277444L611.6003079661984,293.8411459427797L608.7913168947741,292.90142272849823L605.8130936805,292.5783602285ZM454.99601367414664,293.09098522844357L451.89658510271715,294.0029316570172L449.1346565312947,295.46902094273537L446.7610136741625,297.4452173713125L444.8264422456037,299.88748522846305L443.3817279599016,302.75178879990153L442.4776565313392,305.9940923713424L442.1650136742,309.5703602285L442.4776565313392,313.1466280856246L443.3817279599016,316.38893165704064L444.8264422456037,319.2532352284614L446.7610136741625,321.6955030856L449.1346565312947,323.6716995141699L451.89658510271715,325.1377887998844L454.99601367414664,326.0497352284566L458.3821565313,326.3635030856L461.766330638441,326.0497352284566L464.8648351027219,325.1377887998844L467.62664313842936,323.6716995141699L470.00072795985,321.6955030856L471.9360627812707,319.2532352284614L473.38162081697817,316.38893165704064L474.286375281259,313.1466280856246L474.5992993884,309.5703602285L474.286375281259,305.9940923713424L473.38162081697817,302.75178879990153L471.9360627812707,299.88748522846305L470.00072795985,297.4452173713125L467.62664313842936,295.46902094273537L464.8648351027219,294.0029316570172L461.766330638441,293.09098522844357L458.3821565313,292.7772173713ZM396.089427957752,292.9012352284982L393.28121367202186,293.83964594277967L390.7127851005809,295.34827094277443L388.45421367200004,297.38178879991256L386.57557081485044,299.89487808562404L385.14692795770316,302.8422173713391L384.2383565291293,306.1784852284877L383.9199279577,309.8583602285L384.2383565291293,313.3671280856246L385.14692795770316,316.5509316570406L386.57557081485044,319.36573522846135L388.45421367200004,321.7675030856L390.7127851005809,323.7121995141699L393.28121367202186,325.15578879988436L396.089427957752,326.0542352284566L399.0673565292,326.3635030856L402.10840563634105,326.06567272845655L405.0190351006219,325.19328879988433L407.71446813632934,323.77801201416986L410.10992795775,321.8515030856L412.1206377791707,319.4454227284613L413.6618208148781,316.59143165704063L414.648700279159,313.32119058562466L414.9964993863,309.6663602285L414.672325279159,306.10498522848775L413.74282081487814,302.8422173713391L412.2725127791707,299.93237808562407L410.32592795775,297.42978879991256L407.9675931363293,295.3887709427745L405.2620351006219,293.8636459427797L402.27378063634103,292.9087352284983L399.0673565292,292.5783602285ZM171.81837620621076,260.8935364400951L173.17009687887344,261.40579343269843L174.4068637382838,262.21560029563693L175.4791801425375,263.2853357809375L176.33754944973026,264.5773786406271L176.93247501795778,266.0541076267328L177.2144602053158,267.67790149128143L177.1340083699,269.4111389863L176.18144343799997,273.6591732356L175.68328649647574,277.76838412979725L175.56157954255622,281.9171638365781L175.7960394034086,286.0766788994762L176.36638290620002,290.218095862025L177.25232687809768,294.3125812677582L178.4335881462688,298.33130166020936L179.88988353788048,302.2454235829121L181.6009298801,306.0261135794L178.8851935435963,303.211993562664L176.3463055735141,300.2162275203562L173.9969488905717,297.0551559945265L171.8498064154875,293.7451195272249L169.91756106897986,290.3024586605015L168.2128957717672,286.7435139364062L166.7484934445678,283.08462589698905L165.53703700810001,279.34213508429997L164.69087560590003,275.9503959067625L164.04536085950002,272.50393491399996L163.9432008039594,271.57936424409996L163.81785997947503,270.37890442239996L163.69479923062815,269.173884449425L163.59947940200001,268.23563332569995L163.75191987542718,266.6875728067316L164.18058201168594,265.2617813436718L164.8470370360174,263.98400479056363L165.7128561736625,262.87998900145L166.7396106498623,261.97547983037384L167.8888716898578,261.29622313137804L169.12221051889006,260.86796475850576L170.4011983622,260.71645056579996ZM286.11236607149726,292.6066325499273L283.33750000005944,293.2613959427812L280.71659821434184,294.3415700499195L278.34914285720004,295.8380745142L276.33461607148945,297.74182897848044L274.77250000006563,300.04375308561873L273.762276785784,302.73476647847264L273.4952131697138,304.2233440454361L273.4034285715,305.8057887999L302.8411428572,305.8057887999L302.5369642857709,302.59695397847264L301.67414285719843,299.84125308561875L300.32725000005485,297.53089147848044L298.5708571429125,295.65807451419994L296.4795357143435,294.2150075499195L294.1278571429203,293.19389594278124L291.590392857215,292.58694504992735L288.9417142858,292.3863602285ZM203.7369175092,241.4964263318625L205.07565441782072,241.78028783145567L206.30694276215314,242.29704955681717L207.387176095684,243.03127349583576L208.2727479719,243.9675216364L208.97739426310568,245.20834988052712L209.37408783889532,246.59714553303593L209.46344621975294,248.07172903130487L209.2460869261625,249.5699208127125L208.72262747860802,251.0295413146373L207.89368539757342,252.3884109744578L206.75987820354277,253.5843502295525L205.321823417,254.5551795173L201.34537150999998,256.3265449437L197.75192480807226,258.37948387720917L194.3512395004281,260.7583786233297L191.15443095578868,263.42969306960106L188.172614542875,266.3598911035625L185.41690563040822,269.5154366127538L182.89841958710937,272.8627934847141L180.6282717816996,276.368425606983L178.6175775829,279.9987968671L179.25280032120605,276.13908799938577L180.13940139823592,272.31329525673596L181.27187063120718,268.54127429780254L182.64469783733747,264.84288078123745L184.25237283384433,261.2379703656927L186.08938543794528,257.74639870982026L188.150225466858,254.38802147227204L190.42938273779998,251.1826943117L192.64510957129997,248.4785246089L195.02196174969998,245.9050792425L195.70345102275627,245.27140822234998L196.59166715335,244.453431088375L197.48444343521874,243.6346939291875L198.1796131621,242.9987428334L199.51207986274102,242.19662330880644L200.9115237851469,241.68915605842656L202.3343384828043,241.46090307014902Z"></path></svg>